<svg width="17" height="17" viewBox="0 0 17 17" fill="none" xmlns="http://www.w3.org/2000/svg">
<g clip-path="url(#clip0_53_651)">
<path fill-rule="evenodd" clip-rule="evenodd" d="M8.50703 0C3.80286 0 0 3.89582 0 8.71547C0 12.5681 2.43663 15.8292 5.81687 16.9835C6.23949 17.0702 6.39429 16.7959 6.39429 16.5652C6.39429 16.3631 6.38036 15.6706 6.38036 14.949C4.01391 15.4685 3.52112 13.91 3.52112 13.91C3.14082 12.8999 2.57732 12.6403 2.57732 12.6403C1.80279 12.1064 2.63374 12.1064 2.63374 12.1064C3.49291 12.1642 3.94374 13.001 3.94374 13.001C4.70417 14.3285 5.92954 13.9534 6.4225 13.7225C6.49285 13.1597 6.71835 12.7701 6.95778 12.5537C5.07037 12.3517 3.08457 11.6014 3.08457 8.25364C3.08457 7.30129 3.42239 6.52213 3.95767 5.91615C3.87321 5.69976 3.57736 4.80496 4.0423 3.60735C4.0423 3.60735 4.76059 3.37643 6.38019 4.50197C7.0736 4.3112 7.78871 4.21414 8.50703 4.21333C9.22533 4.21333 9.95755 4.31444 10.6337 4.50197C12.2535 3.37643 12.9718 3.60735 12.9718 3.60735C13.4367 4.80496 13.1407 5.69976 13.0562 5.91615C13.6056 6.52213 13.9295 7.30129 13.9295 8.25364C13.9295 11.6014 11.9437 12.3372 10.0422 12.5537C10.3521 12.8279 10.6196 13.3472 10.6196 14.1698C10.6196 15.3385 10.6057 16.2765 10.6057 16.565C10.6057 16.7959 10.7606 17.0702 11.1831 16.9836C14.5633 15.8291 17 12.5681 17 8.71547C17.0139 3.89582 13.1971 0 8.50703 0Z" fill="#28282A"/>
</g>
<defs>
<clipPath id="clip0_53_651">
<rect width="17" height="17" fill="white"/>
</clipPath>
</defs>
</svg>
