<?xml version="1.0" encoding="UTF-8"?>
<svg id="_レイヤー_1" data-name="レイヤー_1" xmlns="http://www.w3.org/2000/svg" xmlns:xlink="http://www.w3.org/1999/xlink" version="1.1" viewBox="0 0 17 17">
  <!-- Generator: Adobe Illustrator 30.1.0, SVG Export Plug-In . SVG Version: 2.1.1 Build 136)  -->
  <defs>
    <style>
      .st0 {
        fill: none;
      }

      .st1 {
        fill: #eceae4;
      }

      .st2 {
        clip-path: url(#clippath);
      }
    </style>
    <clipPath id="clippath">
      <rect class="st0" width="17" height="17"/>
    </clipPath>
  </defs>
  <g class="st2">
    <path class="st1" d="M5,0c-.9,0-1.5.2-2.1.4-.6.2-1,.5-1.5,1-.5.5-.8.9-1,1.5-.2.5-.4,1.2-.4,2.1C0,5.9,0,6.2,0,8.5c0,2.3,0,2.6,0,3.5,0,.9.2,1.5.4,2.1.2.6.5,1,1,1.5.5.5.9.8,1.5,1,.5.2,1.2.4,2.1.4.9,0,1.2,0,3.5,0,2.3,0,2.6,0,3.5,0,.9,0,1.5-.2,2.1-.4.6-.2,1-.5,1.5-1,.5-.5.8-.9,1-1.5.2-.5.4-1.2.4-2.1,0-.9,0-1.2,0-3.5,0-2.3,0-2.6,0-3.5,0-.9-.2-1.5-.4-2.1-.2-.6-.5-1-1-1.5-.5-.5-.9-.8-1.5-1-.5-.2-1.2-.4-2.1-.4C11.1,0,10.8,0,8.5,0c-2.3,0-2.6,0-3.5,0ZM5.1,15.4c-.8,0-1.3-.2-1.6-.3-.4-.2-.7-.3-1-.6-.3-.3-.5-.6-.6-1-.1-.3-.3-.7-.3-1.6,0-.9,0-1.2,0-3.4,0-2.3,0-2.5,0-3.4,0-.8.2-1.3.3-1.6.2-.4.3-.7.6-1,.3-.3.6-.5,1-.6.3-.1.7-.3,1.6-.3.9,0,1.2,0,3.4,0,2.3,0,2.5,0,3.4,0,.8,0,1.3.2,1.6.3.4.2.7.3,1,.6.3.3.5.6.6,1,.1.3.3.7.3,1.6,0,.9,0,1.2,0,3.4,0,2.3,0,2.5,0,3.4,0,.8-.2,1.3-.3,1.6-.2.4-.3.7-.6,1-.3.3-.6.5-1,.6-.3.1-.7.3-1.6.3-.9,0-1.2,0-3.4,0-2.3,0-2.5,0-3.4,0M12,4c0,.2,0,.4.2.6.1.2.3.3.5.4.2,0,.4,0,.6,0,.2,0,.4-.1.5-.3.1-.1.2-.3.3-.5,0-.2,0-.4,0-.6,0-.2-.2-.3-.4-.5-.2-.1-.4-.2-.6-.2-.3,0-.5.1-.7.3-.2.2-.3.5-.3.7ZM4.1,8.5c0,2.4,2,4.4,4.4,4.4,2.4,0,4.4-2,4.4-4.4,0-2.4-2-4.4-4.4-4.4-2.4,0-4.4,2-4.4,4.4ZM5.7,8.5c0-.6.2-1.1.5-1.6.3-.5.8-.8,1.3-1,.5-.2,1.1-.3,1.6-.2s1.1.4,1.5.8c.4.4.7.9.8,1.4.1.5,0,1.1-.2,1.6-.2.5-.6,1-1,1.3-.5.3-1,.5-1.6.5-.4,0-.7,0-1.1-.2-.3-.1-.7-.3-.9-.6-.3-.3-.5-.6-.6-.9-.1-.3-.2-.7-.2-1.1Z"/>
  </g>
</svg>