<?xml version="1.0" encoding="UTF-8"?>
<svg id="_レイヤー_1" data-name="レイヤー_1" xmlns="http://www.w3.org/2000/svg" xmlns:xlink="http://www.w3.org/1999/xlink" version="1.1" viewBox="0 0 18 17">
  <!-- Generator: Adobe Illustrator 30.1.0, SVG Export Plug-In . SVG Version: 2.1.1 Build 136)  -->
  <defs>
    <style>
      .st0 {
        fill: none;
      }

      .st1 {
        fill: #eceae4;
      }

      .st2 {
        clip-path: url(#clippath);
      }
    </style>
    <clipPath id="clippath">
      <rect class="st0" width="18" height="17"/>
    </clipPath>
  </defs>
  <g class="st2">
    <path class="st1" d="M18,7.8c0-4.9,0-5.2-.1-5.3-.1-.5-.4-.9-.8-1-.3-.1-.5-.2-.9-.2-.2,0-.5,0-.8,0s-.6,0-.8,0c-.2,0-.5,0-.7,0h-4.4s-5.1,0-5.1,0c-.3,0-.5,0-.8,0-.3,0-.5,0-.8,0-.5,0-.8,0-1.2,0h0s0,0,0,0c-.6.2-1,.5-1.3,1-.1.3-.2.6-.2,1,0,.4,0,.9,0,1.3,0,.2,0,.3,0,.5v3.3c0,.3,0,.7,0,1.2,0,2,0,3.7,0,4.3.1.6.5,1.1,1,1.4.4.2.7.3,1,.3.3,0,.6,0,.9,0s.7,0,1,0c.3,0,.6,0,.9,0h5.2s4,0,4,0c.2,0,.4,0,.6,0,.2,0,.4,0,.7,0h0c.4,0,.6,0,.9,0h0s0,0,0,0c.9-.3,1.2-.8,1.3-1.2.1-.3.2-.7.2-1,0-.6,0-3.2,0-5.6ZM1.5,13.9c0,0,0-.2-.1-.3,0-.5,0-1,0-1.5,0-.2,0-.3,0-.5v-3.3s0-3,0-3c1.1,1,2.2,2,3.3,3,.3.2.5.5.8.7.2.2.4.4.6.6.5.5,1.1,1,1.7,1.5.2.1.4.2.6.3.1,0,.3,0,.4,0,.3,0,.6,0,.8-.2.6-.3,1.3-1,1.9-1.5.2-.2.4-.4.6-.5.5-.4,1-.9,1.4-1.3,1.1-.9,2.1-1.9,3.2-2.9,0,.6,0,1.6,0,2.3,0,.4,0,.7,0,.9v3.6c0,.2,0,.4,0,.5,0,.4,0,.9,0,1.3,0,.2,0,.3-.1.4-.2.1-.5.1-.8.1h0c-.3,0-.6,0-.9,0s-.8,0-1.3,0c-.3,0-.7,0-1,0h-5.1s-3.6,0-3.6,0c-.2,0-.4,0-.6,0-.2,0-.4,0-.6,0-.4,0-.7,0-1,0,0,0-.2-.2-.3-.3ZM14.7,2.8c.2,0,.5,0,.7,0s.6,0,.8,0c0,0,.3,0,.4.1,0,0,0,.1,0,.2-.2.3-.5.5-.8.7-.1.1-.3.2-.4.4-.8.7-1.5,1.3-2.2,2-.2.1-.3.3-.5.4-.6.6-1.3,1.1-1.9,1.7-.1.1-.3.3-.4.4-.3.3-.7.7-1.1.9-.2.1-.4.2-.5.2,0,0,0,0,0,0-.1,0-.2,0-.3-.2-.4-.3-.8-.7-1.1-1-.1-.1-.3-.3-.4-.4l-2.9-2.7c-.1-.1-.4-.3-.6-.5-.7-.6-1.8-1.5-1.9-1.8,0,0,0,0,0,0,0-.2.3-.4.4-.5.3,0,.7,0,1.1,0s.5,0,.8,0c.3,0,.5,0,.8,0h5s4.6,0,4.6,0c.2,0,.5,0,.7,0Z"/>
  </g>
</svg>