<svg width="18" height="17" viewBox="0 0 18 17" fill="none" xmlns="http://www.w3.org/2000/svg">
<g clip-path="url(#clip0_53_657)">
<path d="M17.9992 7.83333C17.989 2.93678 17.9014 2.64555 17.8726 2.54981C17.7262 2.06344 17.439 1.67533 17.1044 1.51162C16.8492 1.38683 16.5625 1.31276 16.2521 1.29147C16.0126 1.27504 15.7501 1.26704 15.4495 1.26704C15.1706 1.26704 14.8876 1.27379 14.6139 1.2803C14.3672 1.28618 14.1121 1.29225 13.8655 1.2932L9.44609 1.29393L4.39364 1.29437C4.12811 1.29437 3.85602 1.29085 3.5929 1.28744C3.32713 1.28401 3.05232 1.28046 2.78142 1.28046C2.31986 1.28046 1.94385 1.29101 1.59811 1.31366L1.57488 1.31518L1.55236 1.32206C0.949135 1.50598 0.547698 1.82531 0.289018 2.327C0.15081 2.59505 0.0693907 2.93022 0.0401114 3.35168C0.00950053 3.7922 0.0165816 4.24297 0.0234361 4.6789C0.0259466 4.83885 0.0285471 5.00424 0.0291283 5.16398L0.0394483 8.41694C0.0401551 8.70578 0.0326975 9.14132 0.0240556 9.64564C-0.0102773 11.6499 -0.0273755 13.3587 0.111847 13.9711C0.250344 14.5804 0.574345 15.058 1.07489 15.3907C1.42887 15.6259 1.78014 15.6773 2.10694 15.6977C2.38878 15.7155 2.69632 15.7241 3.04713 15.7241C3.39483 15.7241 3.74802 15.7157 4.08958 15.7076C4.39621 15.7004 4.71327 15.6929 5.01994 15.6917L10.2551 15.6981L14.2739 15.7092C14.4655 15.7097 14.6581 15.7151 14.8621 15.7208C15.0748 15.7268 15.2947 15.733 15.5122 15.733H15.5123C15.8723 15.733 16.1622 15.7158 16.4247 15.6789L16.4471 15.6757L16.4686 15.6676C17.3369 15.3391 17.6289 14.8397 17.773 14.4927C17.91 14.1625 17.938 13.8127 17.955 13.4826C17.9841 12.913 18.0044 10.3259 17.9992 7.83333ZM1.47036 13.8851C1.41458 13.8164 1.38234 13.7296 1.36253 13.5949C1.29446 13.132 1.30493 12.6222 1.31505 12.1291C1.31843 11.9642 1.32193 11.7937 1.32238 11.6277L1.3274 8.28493L1.3255 5.25581C2.44973 6.2537 3.57199 7.28722 4.66088 8.29002C4.92562 8.53382 5.1903 8.77756 5.45512 9.02092C5.66965 9.21806 5.88947 9.42824 6.10206 9.6315C6.63326 10.1394 7.18253 10.6646 7.75788 11.0954C7.94037 11.2321 8.14568 11.3197 8.40403 11.371C8.53395 11.3968 8.66389 11.4098 8.79025 11.4098C9.07611 11.4098 9.3429 11.3443 9.58318 11.2152C10.1629 10.9037 10.8632 10.2465 11.4811 9.66667C11.6825 9.47758 11.8729 9.29899 12.0415 9.14915C12.5183 8.72565 13.0018 8.29344 13.4693 7.87546C14.5257 6.93111 15.6146 5.95762 16.7041 5.01551C16.7338 5.63229 16.7165 6.57847 16.7031 7.31171C16.6965 7.67277 16.6907 7.98459 16.6909 8.21396L16.6904 11.8229C16.6901 11.9982 16.6929 12.1793 16.6957 12.3544C16.7025 12.7896 16.7095 13.2395 16.6696 13.6531C16.6534 13.8199 16.6135 13.938 16.5212 14.0852C16.3388 14.1854 15.9862 14.2005 15.7701 14.2098L15.7467 14.2108C15.4653 14.223 15.1629 14.2289 14.8223 14.2289C14.4054 14.2289 13.9797 14.22 13.5679 14.2113C13.2321 14.2043 12.8849 14.197 12.5434 14.1946L7.4455 14.1909L3.88449 14.1872C3.70114 14.1876 3.51372 14.1908 3.33246 14.1939C3.13995 14.1971 2.94089 14.2005 2.74578 14.2005C2.34999 14.2005 2.04316 14.1865 1.76099 14.1552C1.66191 14.0795 1.55553 13.99 1.47036 13.8851ZM14.6878 2.796C14.9181 2.79151 15.1563 2.78686 15.3892 2.78686C15.6993 2.78686 15.9539 2.79498 16.1904 2.81242C16.2723 2.81846 16.4899 2.8345 16.573 2.92517C16.6362 2.99407 16.6581 3.04997 16.6689 3.17503C16.4218 3.43202 16.1249 3.66995 15.8369 3.9008C15.6943 4.0151 15.5469 4.13328 15.4091 4.25111C14.6461 4.90335 13.8826 5.58992 13.1675 6.23588C13.0037 6.38135 12.8398 6.52664 12.6758 6.67195C12.0507 7.22603 11.4042 7.79897 10.775 8.37362C10.6318 8.50431 10.4863 8.6444 10.3456 8.77989C9.99665 9.11576 9.63587 9.46306 9.26605 9.71352C9.07331 9.844 8.89743 9.9146 8.72847 9.92935C8.7191 9.93017 8.70977 9.93058 8.70076 9.93058C8.58899 9.93058 8.49995 9.86556 8.35222 9.75068C7.96508 9.44944 7.58593 9.08965 7.21929 8.74173C7.0726 8.60253 6.92093 8.45861 6.77067 8.32028L3.87349 5.66333C3.74731 5.54849 3.51514 5.34755 3.24632 5.11489C2.59139 4.54806 1.49522 3.59935 1.31907 3.34919C1.3145 3.3427 1.30687 3.33185 1.31766 3.27963C1.3562 3.09326 1.5791 2.9107 1.70756 2.81464C2.03568 2.79437 2.39609 2.78489 2.8353 2.78489C3.101 2.78489 3.37178 2.78827 3.63364 2.79152C3.89195 2.79475 4.15906 2.79808 4.42079 2.79816L9.3865 2.8006L13.9883 2.80513C14.2202 2.80513 14.4579 2.80049 14.6878 2.796Z" fill="#030303"/>
</g>
<defs>
<clipPath id="clip0_53_657">
<rect width="18" height="17" fill="white"/>
</clipPath>
</defs>
</svg>
