<?xml version="1.0" encoding="UTF-8"?>
<svg id="_レイヤー_1" data-name="レイヤー_1" xmlns="http://www.w3.org/2000/svg" xmlns:xlink="http://www.w3.org/1999/xlink" version="1.1" viewBox="0 0 17 17">
  <!-- Generator: Adobe Illustrator 30.1.0, SVG Export Plug-In . SVG Version: 2.1.1 Build 136)  -->
  <defs>
    <style>
      .st0 {
        fill: none;
      }

      .st1 {
        fill: #eceae4;
        fill-rule: evenodd;
      }

      .st2 {
        clip-path: url(#clippath);
      }
    </style>
    <clipPath id="clippath">
      <rect class="st0" width="17" height="17"/>
    </clipPath>
  </defs>
  <g class="st2">
    <path class="st1" d="M8.5,0C3.8,0,0,3.9,0,8.7s2.4,7.1,5.8,8.3c.4,0,.6-.2.6-.4s0-.9,0-1.6c-2.4.5-2.9-1-2.9-1-.4-1-.9-1.3-.9-1.3-.8-.5,0-.5,0-.5.9,0,1.3.9,1.3.9.8,1.3,2,1,2.5.7,0-.6.3-1,.5-1.2-1.9-.2-3.9-1-3.9-4.3s.3-1.7.9-2.3c0-.2-.4-1.1,0-2.3,0,0,.7-.2,2.3.9.7-.2,1.4-.3,2.1-.3.7,0,1.5.1,2.1.3,1.6-1.1,2.3-.9,2.3-.9.5,1.2.2,2.1,0,2.3.5.6.9,1.4.9,2.3,0,3.3-2,4.1-3.9,4.3.3.3.6.8.6,1.6,0,1.2,0,2.1,0,2.4s.2.5.6.4c3.4-1.2,5.8-4.4,5.8-8.3,0-4.8-3.8-8.7-8.5-8.7Z"/>
  </g>
</svg>