<?xml version="1.0" encoding="UTF-8"?>
<svg id="_レイヤー_1" xmlns="http://www.w3.org/2000/svg" version="1.1" viewBox="0 0 128 128">
  <!-- Generator: Adobe Illustrator 29.3.0, SVG Export Plug-In . SVG Version: 2.1.0 Build 146)  -->
  <defs>
    <style>
      .st0 {
        fill: #040000;
      }
    </style>
  </defs>
  <path class="st0" d="M95.3,12.9c.4.4.5.8.5,1.3v14.7c0,.5-.2.9-.5,1.3-.4.4-.8.5-1.3.5h-18.9c-.5,0-.8.3-.8.8v85.1c0,.5-.2.9-.5,1.3-.4.4-.8.5-1.3.5h-17.7c-.5,0-.9-.2-1.3-.5-.4-.4-.5-.8-.5-1.3V31.4c0-.5-.3-.8-.8-.8h-18.2c-.5,0-.9-.2-1.3-.5-.4-.4-.5-.8-.5-1.3v-14.7c0-.5.2-.9.5-1.3.4-.4.8-.5,1.3-.5h60c.5,0,.9.2,1.3.5h0Z"/>
</svg>